<svg width="23" height="23" viewBox="0 0 23 23" fill="none" xmlns="http://www.w3.org/2000/svg">
    <path fill-rule="evenodd" clip-rule="evenodd" d="M7.35025 1.91602H15.659C18.9078 1.91602 21.0832 4.19685 21.0832 7.58935V15.4199C21.0832 18.8028 18.9078 21.0827 15.659 21.0827H7.35025C4.1015 21.0827 1.9165 18.8028 1.9165 15.4199V7.58935C1.9165 4.19685 4.1015 1.91602 7.35025 1.91602ZM11.4903 8.68283C11.0399 8.68283 10.6662 8.30812 10.6662 7.84907C10.6662 7.37949 11.0399 7.00574 11.5095 7.00574C11.9695 7.00574 12.3433 7.37949 12.3433 7.84907C12.3433 8.30812 11.9695 8.68283 11.4903 8.68283ZM12.3335 15.1228C12.3335 15.5828 11.9598 15.9565 11.4902 15.9565C11.0302 15.9565 10.6564 15.5828 10.6564 15.1228V10.887C10.6564 10.426 11.0302 10.0436 11.4902 10.0436C11.9598 10.0436 12.3335 10.426 12.3335 10.887V15.1228Z" fill="white"/>
    </svg>
    