<svg width="124" height="23" viewBox="0 0 124 23" fill="none" xmlns="http://www.w3.org/2000/svg">
<g clip-path="url(#clip0_7_628)">
<path d="M25.3416 8.68662C25.3137 11.6003 27.306 13.2262 28.8068 14.1929C30.3488 15.1847 30.8667 15.8208 30.8606 16.7079C30.8491 18.0653 29.6306 18.6644 28.4904 18.6877C26.5012 18.7284 25.3445 17.9777 24.425 17.41L23.7083 21.8425C24.6309 22.4044 26.3392 22.8945 28.1107 22.916C32.269 22.916 34.9894 20.2027 35.0042 15.9959C35.0205 10.6568 29.4174 10.3613 29.4557 7.9749C29.4689 7.25128 29.9913 6.47909 31.1359 6.28275C31.7024 6.18357 33.2664 6.10767 35.0396 7.18702L35.7355 2.89846C34.782 2.4395 33.5564 2.00002 32.0305 2.00002C28.1166 2.00002 25.3638 4.75026 25.3416 8.68662ZM42.4229 2.36942C41.6636 2.36942 41.0237 2.95488 40.7381 3.85333L34.7982 22.601H38.9535L39.7803 19.5803H44.858L45.3376 22.601H49L45.8041 2.36942H42.4229ZM43.0042 7.83473L44.2034 15.4319H40.9192L43.0042 7.83473ZM20.3036 2.36967L17.0283 22.6008H20.9879L24.2617 2.36916H20.3036M14.446 2.36916L10.3246 16.1398L8.6575 4.43121C8.46188 3.12415 7.68936 2.36942 6.83148 2.36942H0.0943633L0 2.95691C1.3831 3.35363 2.95455 3.9935 3.9066 4.67815C4.48924 5.09638 4.65538 5.46198 4.84679 6.45581L8.00442 22.601H12.1888L18.6039 2.36942H14.446" fill="url(#paint0_linear_7_628)"/>
</g>
<g clip-path="url(#clip1_7_628)">
<path d="M97.9424 2.46057H109.017V20.5477H97.9424V2.46057Z" fill="#FF5F00"/>
<path d="M98.6455 11.5042C98.6455 7.82932 100.544 4.56972 103.462 2.46056C101.318 0.926696 98.6104 0 95.6571 0C88.6604 0 83 5.14487 83 11.5042C83 17.8634 88.6604 23.0084 95.657 23.0084C98.6103 23.0084 101.317 22.0817 103.462 20.5477C100.544 18.4706 98.6455 15.1791 98.6455 11.5042Z" fill="#EB001B"/>
<path d="M123.959 11.5042C123.959 17.8634 118.299 23.0084 111.302 23.0084C108.349 23.0084 105.642 22.0817 103.497 20.5477C106.451 18.4387 108.314 15.1791 108.314 11.5042C108.314 7.82932 106.415 4.56972 103.497 2.46056C105.642 0.926696 108.349 0 111.302 0C118.299 0 123.96 5.17689 123.96 11.5042H123.959Z" fill="#F79E1B"/>
</g>
<defs>
<linearGradient id="paint0_linear_7_628" x1="22.5273" y1="23.3356" x2="23.3271" y2="1.86729" gradientUnits="userSpaceOnUse">
<stop stop-color="#222357"/>
<stop offset="1" stop-color="#254AA5"/>
</linearGradient>
<clipPath id="clip0_7_628">
<rect width="49" height="21" fill="white" transform="translate(0 2)"/>
</clipPath>
<clipPath id="clip1_7_628">
<rect width="41" height="23" fill="white" transform="translate(83)"/>
</clipPath>
</defs>
</svg>
