<svg width="23" height="21" viewBox="0 0 23 21" fill="none" xmlns="http://www.w3.org/2000/svg">
    <path d="M20.6022 10.4967L22.6679 8.65082C23.2837 8.11856 22.9966 7.17266 22.1889 6.99629L19.3745 6.34045L20.1679 3.79687C20.3921 3.06524 19.6365 2.37515 18.8355 2.5799L16.0506 3.30452L15.3325 0.734033C15.1425 0.00809832 14.0949 -0.257396 13.5211 0.296479L11.5 2.19722L9.47903 0.29652C8.91166 -0.251079 7.85973 -0.000186903 7.66755 0.734074L6.94952 3.30456L4.16458 2.57994C3.36331 2.37511 2.60799 3.06544 2.83215 3.79691L3.62552 6.34049L0.811154 6.99633C0.00309809 7.17274 -0.283459 8.11881 0.332062 8.65082L2.3978 10.4967L0.332062 12.3426C-0.283729 12.8749 0.00341263 13.8208 0.81111 13.9971L3.62547 14.653L2.8321 17.1965C2.6079 17.9282 3.36349 18.6183 4.16453 18.4135L6.94943 17.6889L7.66746 20.2594C7.86687 21.0212 8.91162 21.2445 9.47894 20.6969L11.5 18.8102L13.521 20.6969C14.0825 21.2501 15.1376 21.004 15.3325 20.2594L16.0505 17.6889L18.8354 18.4135C19.6366 18.6183 20.392 17.928 20.1679 17.1965L19.3745 14.653L22.1888 13.9971C22.9969 13.8207 23.2834 12.8746 22.6679 12.3426L20.6022 10.4967Z" fill="white"/>
    </svg>
    