<svg width="91" height="85" viewBox="0 0 91 85" fill="none" xmlns="http://www.w3.org/2000/svg">
<g filter="url(#filter0_d_2001_628)">
<path fill-rule="evenodd" clip-rule="evenodd" d="M45.2697 60.7241C61.1913 60.7241 74.0983 48.9393 74.0983 34.402C74.0983 19.8648 61.1913 8.08 45.2697 8.08C29.3482 8.08 16.4412 19.8648 16.4412 34.402C16.4412 48.9393 29.3482 60.7241 45.2697 60.7241Z" fill="white"/>
</g>
<path fill-rule="evenodd" clip-rule="evenodd" d="M53.3049 44.7467C51.8168 46.902 48.6321 46.902 47.1439 44.7467L41.2149 36.1597C39.5003 33.6765 41.2778 30.2892 44.2954 30.2892L56.1534 30.2892C59.1711 30.2892 60.9485 33.6765 59.234 36.1597L53.3049 44.7467Z" fill="url(#paint0_linear_2001_628)"/>
<path fill-rule="evenodd" clip-rule="evenodd" d="M37.2341 26.5251C38.7223 24.3698 41.907 24.3698 43.3952 26.5251L49.3242 35.1121C51.0388 37.5953 49.2613 40.9826 46.2437 40.9826H34.3856C31.368 40.9826 29.5905 37.5953 31.3051 35.1121L37.2341 26.5251Z" fill="url(#paint1_linear_2001_628)"/>
<defs>
<filter id="filter0_d_2001_628" x="0.441162" y="0.079998" width="89.6572" height="84.6441" filterUnits="userSpaceOnUse" color-interpolation-filters="sRGB">
<feFlood flood-opacity="0" result="BackgroundImageFix"/>
<feColorMatrix in="SourceAlpha" type="matrix" values="0 0 0 0 0 0 0 0 0 0 0 0 0 0 0 0 0 0 127 0" result="hardAlpha"/>
<feOffset dy="8"/>
<feGaussianBlur stdDeviation="8"/>
<feColorMatrix type="matrix" values="0 0 0 0 0 0 0 0 0 0 0 0 0 0 0 0 0 0 0.0535402 0"/>
<feBlend mode="normal" in2="BackgroundImageFix" result="effect1_dropShadow_2001_628"/>
<feBlend mode="normal" in="SourceGraphic" in2="effect1_dropShadow_2001_628" result="shape"/>
</filter>
<linearGradient id="paint0_linear_2001_628" x1="49.766" y1="26.2134" x2="41.4374" y2="42.2119" gradientUnits="userSpaceOnUse">
<stop stop-color="#FFD7A9"/>
<stop offset="1" stop-color="#FFAE70"/>
</linearGradient>
<linearGradient id="paint1_linear_2001_628" x1="41.9832" y1="45.455" x2="54.0506" y2="28.2633" gradientUnits="userSpaceOnUse">
<stop stop-color="#CD10FF"/>
<stop offset="1" stop-color="#9F06FF"/>
</linearGradient>
</defs>
</svg>
