<svg width="21" height="21" viewBox="0 0 21 21" fill="none" xmlns="http://www.w3.org/2000/svg">
    <path d="M8.2057 2.86523H4.48228C3.82394 2.86523 3.19256 3.12676 2.72704 3.59228C2.26152 4.05779 2 4.68917 2 5.34751V16.5178C2 17.1761 2.26152 17.8075 2.72704 18.273C3.19256 18.7385 3.82394 19 4.48228 19H15.6525C16.3109 19 16.9423 18.7385 17.4078 18.273C17.8733 17.8075 18.1348 17.1761 18.1348 16.5178V12.7944" stroke="white" stroke-width="2.5" stroke-linecap="round" stroke-linejoin="round"/>
    <path d="M7.95007 13.05H10.6849L18.4337 5.30126C18.7963 4.93859 19.0001 4.44672 19.0001 3.93383C19.0001 3.42095 18.7963 2.92907 18.4337 2.56641C18.071 2.20374 17.5791 2 17.0662 2C16.5534 2 16.0615 2.20374 15.6988 2.56641L7.95007 10.3151V13.05Z" stroke="white" stroke-width="2.5" stroke-linecap="round" stroke-linejoin="round"/>
    <path d="M14.75 4.5498L16.45 6.2498" stroke="white" stroke-width="2.5" stroke-linecap="round" stroke-linejoin="round"/>
    </svg>
    