<svg width="23" height="23" viewBox="0 0 23 23" fill="none" xmlns="http://www.w3.org/2000/svg">
    <path fill-rule="evenodd" clip-rule="evenodd"
        d="M7.48458 1.9165H15.5164C18.4767 1.9165 20.125 3.62234 20.125 6.54525V16.4448C20.125 19.4157 18.4767 21.0832 15.5164 21.0832H7.48458C4.57125 21.0832 2.875 19.4157 2.875 16.4448V6.54525C2.875 3.62234 4.57125 1.9165 7.48458 1.9165ZM7.74347 6.38234V6.37276H10.6079C11.021 6.37276 11.3564 6.70817 11.3564 7.1193C11.3564 7.54192 11.021 7.87734 10.6079 7.87734H7.74347C7.33043 7.87734 6.99597 7.54192 6.99597 7.12984C6.99597 6.71776 7.33043 6.38234 7.74347 6.38234ZM7.74347 12.209H15.2568C15.6689 12.209 16.0043 11.8736 16.0043 11.4615C16.0043 11.0494 15.6689 10.713 15.2568 10.713H7.74347C7.33043 10.713 6.99597 11.0494 6.99597 11.4615C6.99597 11.8736 7.33043 12.209 7.74347 12.209ZM7.74336 16.5886H15.2567C15.6391 16.5503 15.9275 16.2235 15.9275 15.8411C15.9275 15.4482 15.6391 15.1223 15.2567 15.084H7.74336C7.45586 15.0553 7.17794 15.1894 7.02461 15.4386C6.87128 15.6782 6.87128 15.9944 7.02461 16.2436C7.17794 16.4832 7.45586 16.6269 7.74336 16.5886Z"
        fill="white" />
</svg>
    